<svg xmlns="http://www.w3.org/2000/svg" version="1.1" xmlns:xlink="http://www.w3.org/1999/xlink" viewBox="0 0 17.955744743710614 5.38617769505709"><g transform="matrix(1,0,0,1,6.558254267525478,1.7856321167593145)"><rect width="17.955744743710614" height="17.955744743710614" x="-6.558254267525478" y="-8.070415641086077" fill="#ffffff"></rect><g clip-path="url(#SvgjsClipPath1002)"><g clip-path="url(#SvgjsClipPath100013b6da7b-0875-46a8-832e-0a75e43a2d70)"><path d=" M -5.10679997214775 0.04364181733584305 C -5.10679997214775 0.04364181733584305 -5.015270108323781 0.039206835091263104 -4.889865149855364 0.03337133213787036 L -4.827045960562089 -0.4149120047417827 Z" fill="#07abf3" transform="matrix(1,0,0,1,0,0)" fill-rule="evenodd"></path></g><g clip-path="url(#SvgjsClipPath100013b6da7b-0875-46a8-832e-0a75e43a2d70)"><path d=" M -4.889865149855364 0.03337133213787036 L -4.910697895398978 0.1821766574493957 L -4.493955451982414 0.30375936148333893 L -4.277633357500136 0.007724296657713126 C -4.42045729228443 0.011984213813684752 -4.6957471441107455 0.024355480074876645 -4.889865149855364 0.03337133213787036 Z" fill="#0162af" transform="matrix(1,0,0,1,0,0)" fill-rule="evenodd"></path></g><g clip-path="url(#SvgjsClipPath100013b6da7b-0875-46a8-832e-0a75e43a2d70)"><path d=" M -4.277633357500136 0.007607586598641802 L -4.493955451982416 0.3036718289390372 L -4.732860942894326 0.6305767043881148 L -4.732860942894326 1.0270699525564038 L -3.7671435591373132 -0.015471827582027808 L -4.277633357500136 0.007607586598641802 Z" fill="#07abf3" transform="matrix(1,0,0,1,0,0)" fill-rule="evenodd"></path></g><g clip-path="url(#SvgjsClipPath100013b6da7b-0875-46a8-832e-0a75e43a2d70)"><path d=" M -3.7671435591373132 -0.015471827582027808 L -4.732860942894326 1.0270699525564038 L -4.732860942894326 1.7867649045438758 L -3.8490448430881843 0.9128691597585028 L -3.7671435591373132 -0.015471827582027808 Z" fill="#0162af" transform="matrix(1,0,0,1,0,0)" fill-rule="evenodd"></path></g><g clip-path="url(#SvgjsClipPath100013b6da7b-0875-46a8-832e-0a75e43a2d70)"><path d=" M -4.732860942894326 1.7867649045438758 L -4.732860942894326 1.0270699525564038 L -5.145722776846883 1.4727273131070298 L -5.768662717121589 2.810954027893887 L -4.732860942894326 1.7867649045438758 Z" fill="#07abf3" transform="matrix(1,0,0,1,0,0)" fill-rule="evenodd"></path></g><g clip-path="url(#SvgjsClipPath100013b6da7b-0875-46a8-832e-0a75e43a2d70)"><path d=" M -3.8490448430881843 0.9128691597585028 L -4.732860942894326 1.7867649045438758 L -4.732860942894326 1.7876694075016515 L -3.9055616891917957 1.5534906739819896 L -3.885983576783162 1.3312163664872487 L -3.8490448430881843 0.9128691597585028 Z" fill="#07abf3" transform="matrix(1,0,0,1,0,0)" fill-rule="evenodd"></path></g><g clip-path="url(#SvgjsClipPath100013b6da7b-0875-46a8-832e-0a75e43a2d70)"><path d=" M -3.8490448430881843 0.9128691597585028 L -3.885983576783162 1.3312163664872487 L -3.330064387928175 1.0804939820947175 L -3.8490448430881843 0.9128691597585028 Z" fill="#0162af" transform="matrix(1,0,0,1,0,0)" fill-rule="evenodd"></path></g><g clip-path="url(#SvgjsClipPath100013b6da7b-0875-46a8-832e-0a75e43a2d70)"><path d=" M -3.8490448430881843 0.9128691597585028 L -3.330064387928175 1.0804939820947175 L -2.728890873669625 0.8093765148800771 L -3.7671435591373132 -0.015471827582027808 L -3.8490448430881843 0.9128691597585028 Z" fill="#07abf3" transform="matrix(1,0,0,1,0,0)" fill-rule="evenodd"></path></g><g clip-path="url(#SvgjsClipPath100013b6da7b-0875-46a8-832e-0a75e43a2d70)"><path d=" M -2.728890873669625 0.8093765148800771 L -3.330064387928175 1.0804939820947175 L -2.5443139152538037 1.3342800055377804 L -2.163488992515374 0.8476865917691023 L -2.728890873669625 0.8093765148800771 Z" fill="#0162af" transform="matrix(1,0,0,1,0,0)" fill-rule="evenodd"></path></g><g clip-path="url(#SvgjsClipPath100013b6da7b-0875-46a8-832e-0a75e43a2d70)"><path d=" M -3.082434820100942 -0.4449648449517548 L -2.728890873669625 0.8093765148800771 L -2.163488992515374 0.8476865917691023 L -3.082434820100942 -0.4449648449517548 Z" fill="#07abf3" transform="matrix(1,0,0,1,0,0)" fill-rule="evenodd"></path></g><g clip-path="url(#SvgjsClipPath100013b6da7b-0875-46a8-832e-0a75e43a2d70)"><path d=" M -3.082434820100942 -0.4449648449517548 L -2.163488992515374 0.8476865917691023 L -2.2039873830119223 -0.9960405663554257 L -3.082434820100942 -0.4449648449517548 Z" fill="#0162af" transform="matrix(1,0,0,1,0,0)" fill-rule="evenodd"></path></g><g clip-path="url(#SvgjsClipPath100013b6da7b-0875-46a8-832e-0a75e43a2d70)"><path d=" M -2.2039873830119223 -0.9960405663554257 L -2.163488992515374 0.8476865917691023 L -1.697611614231242 0.2524944680377801 L -1.7771495194859894 0.03071617829407791 L -1.567275655767209 -0.30447511134881766 L -1.3906641588827684 -0.5865049690863029 L -2.2039873830119223 -0.9960405663554257 Z" fill="#07abf3" transform="matrix(1,0,0,1,0,0)" fill-rule="evenodd"></path></g><g clip-path="url(#SvgjsClipPath100013b6da7b-0875-46a8-832e-0a75e43a2d70)"><path d=" M -1.567275655767209 -0.30447511134881766 L -1.7771495194859894 0.03071617829407791 L -1.697611614231242 0.2524944680377801 L -1.5579096735270124 0.6421310002358329 L -1.2334848868331267 -0.05439463228115926 L -1.567275655767209 -0.30447511134881766 Z" fill="#0162af" transform="matrix(1,0,0,1,0,0)" fill-rule="evenodd"></path></g><g clip-path="url(#SvgjsClipPath100013b6da7b-0875-46a8-832e-0a75e43a2d70)"><path d=" M -1.567275655767209 -0.30447511134881766 L -1.2334848868331267 -0.05439463228115926 L -0.993412295330538 -0.11420853755343785 L -1.1403794372117408 -0.2889526734927921 L -1.567275655767209 -0.30447511134881766 Z" fill="#07abf3" transform="matrix(1,0,0,1,0,0)" fill-rule="evenodd"></path></g><g clip-path="url(#SvgjsClipPath100013b6da7b-0875-46a8-832e-0a75e43a2d70)"><path d=" M -1.1403794372117408 -0.2889526734927921 L -0.993412295330538 -0.11420853755343785 L -0.40000000000000036 -0.2620510048776503 L -1.1403794372117408 -0.2889526734927921 Z" fill="#0162af" transform="matrix(1,0,0,1,0,0)" fill-rule="evenodd"></path></g><g clip-path="url(#SvgjsClipPath100013b6da7b-0875-46a8-832e-0a75e43a2d70)"><path d=" M -1.567275655767209 -0.30447511134881766 L -1.1403794372117408 -0.2889526734927921 L -1.3906641588827684 -0.5865049690863029 L -1.567275655767209 -0.30447511134881766 Z" fill="#0162af" transform="matrix(1,0,0,1,0,0)" fill-rule="evenodd"></path></g><g clip-path="url(#SvgjsClipPath100013b6da7b-0875-46a8-832e-0a75e43a2d70)"><path d=" M -1.2334848868331267 -0.05439463228115926 L -1.5579096735270124 0.6421310002358329 L -1.1138278987738035 0.7171172131869334 L -0.8715086386341575 0.03071617829407791 L -1.2334848868331267 -0.05439463228115926 Z" fill="#07abf3" transform="matrix(1,0,0,1,0,0)" fill-rule="evenodd"></path></g><g clip-path="url(#SvgjsClipPath100013b6da7b-0875-46a8-832e-0a75e43a2d70)"><path d=" M -1.9950763772804518 1.0845496566473256 L -2.163488992515374 0.8476865917691023 L -2.5443139152538037 1.3342800055377804 L -2.1170967440358996 1.3342800055377804 L -1.9950763772804518 1.0845496566473256 Z" fill="#07abf3" transform="matrix(1,0,0,1,0,0)" fill-rule="evenodd"></path></g><g clip-path="url(#SvgjsClipPath100013b6da7b-0875-46a8-832e-0a75e43a2d70)"><path d=" M -1.9950763772804518 1.0845496566473256 L -2.1170967440358996 1.3342800055377804 L -1.8175020224087017 1.3342800055377804 L -1.9950763772804518 1.0845496566473256 Z" fill="#0162af" transform="matrix(1,0,0,1,0,0)" fill-rule="evenodd"></path></g><g clip-path="url(#SvgjsClipPath100013b6da7b-0875-46a8-832e-0a75e43a2d70)"><path d=" M -1.8175020224087017 1.3342800055377804 L -2.1170967440358996 1.3342800055377804 L -2.444818589898452 2.004837649912173 L -1.8175020224087017 1.3342800055377804 Z" fill="#07abf3" transform="matrix(1,0,0,1,0,0)" fill-rule="evenodd"></path></g><g clip-path="url(#SvgjsClipPath100013b6da7b-0875-46a8-832e-0a75e43a2d70)"><path d=" M -3.7671435591373132 -0.015471827582027808 L -2.728890873669625 0.8093765148800771 L -3.082434820100942 -0.4449648449517548 L -3.7671435591373132 -0.015471827582027808 Z" fill="#0162af" transform="matrix(1,0,0,1,0,0)" fill-rule="evenodd"></path></g><g clip-path="url(#SvgjsClipPath100013b6da7b-0875-46a8-832e-0a75e43a2d70)"><path d=" M -1.2334848868331267 -0.05439463228115926 L -0.8715086386341575 0.03071617829407791 L -0.993412295330538 -0.11420853755343785 L -1.2334848868331267 -0.05439463228115926 Z" fill="#0162af" transform="matrix(1,0,0,1,0,0)" fill-rule="evenodd"></path></g></g><g><path d=" M 0.41400000000000003 1.0125 L 0.135 0.09449999999999992 L 0.021 0.038999999999999924 L 0.021 0.014999999999999902 L 0.4245 0.014999999999999902 L 0.4245 0.038999999999999924 L 0.297 0.09449999999999992 L 0.48 0.7274999999999998 L 0.489 0.7274999999999998 L 0.7485 0.00749999999999984 L 0.8115 0.00749999999999984 L 1.0755000000000001 0.7274999999999998 L 1.0845 0.7274999999999998 L 1.266 0.09599999999999986 L 1.1385 0.038999999999999924 L 1.1385 0.014999999999999902 L 1.4715 0.014999999999999902 L 1.4715 0.038999999999999924 L 1.371 0.09299999999999986 L 1.089 1.0125 L 1.0275 1.0125 L 0.7575000000000001 0.29399999999999993 L 0.747 0.29399999999999993 L 0.47400000000000003 1.0125 L 0.41400000000000003 1.0125 M 1.58099267578125 1.005 L 1.58099267578125 0.9809999999999999 L 1.70249267578125 0.9209999999999999 L 1.70249267578125 0.09899999999999987 L 1.58099267578125 0.038999999999999924 L 1.58099267578125 0.014999999999999902 L 2.33399267578125 0.014999999999999902 L 2.33399267578125 0.2729999999999999 L 2.30999267578125 0.2729999999999999 L 2.2124926757812498 0.09749999999999992 L 1.85999267578125 0.09749999999999992 L 1.85999267578125 0.45299999999999985 L 2.10899267578125 0.45299999999999985 L 2.18549267578125 0.32699999999999985 L 2.20949267578125 0.32699999999999985 L 2.20949267578125 0.6584999999999999 L 2.18549267578125 0.6584999999999999 L 2.10899267578125 0.5354999999999999 L 1.85999267578125 0.5354999999999999 L 1.85999267578125 0.9224999999999999 L 2.25299267578125 0.9224999999999999 L 2.3519926757812497 0.7244999999999999 L 2.3759926757812497 0.7244999999999999 L 2.3759926757812497 1.005 L 1.58099267578125 1.005 M 2.522987548828125 1.005 L 2.522987548828125 0.9809999999999999 L 2.617487548828125 0.9314999999999999 L 3.002987548828125 0.00749999999999984 L 3.085487548828125 0.00749999999999984 L 3.466487548828125 0.9269999999999999 L 3.566987548828125 0.9809999999999999 L 3.566987548828125 1.005 L 3.170987548828125 1.005 L 3.170987548828125 0.9809999999999999 L 3.302987548828125 0.9284999999999999 L 3.191987548828125 0.6584999999999999 L 2.830487548828125 0.6584999999999999 L 2.7209875488281248 0.9299999999999999 L 2.8469875488281247 0.9809999999999999 L 2.8469875488281247 1.005 L 2.522987548828125 1.005 M 2.864987548828125 0.5759999999999998 L 3.158987548828125 0.5759999999999998 L 3.0119875488281247 0.2144999999999999 L 2.864987548828125 0.5759999999999998 M 3.7004597167968747 1.005 L 3.7004597167968747 0.9809999999999999 L 3.821959716796875 0.9209999999999999 L 3.821959716796875 0.09899999999999987 L 3.7004597167968747 0.038999999999999924 L 3.7004597167968747 0.014999999999999902 L 4.1159597167968744 0.014999999999999902 L 4.1159597167968744 0.038999999999999924 L 3.9794597167968746 0.09899999999999987 L 3.9794597167968746 0.9224999999999999 L 4.334959716796875 0.9224999999999999 L 4.441459716796875 0.6644999999999999 L 4.465459716796875 0.6644999999999999 L 4.465459716796875 1.005 L 3.7004597167968747 1.005 M 4.766901123046875 1.005 L 4.766901123046875 0.9809999999999999 L 4.918401123046875 0.9209999999999999 L 4.918401123046875 0.09749999999999992 L 4.681401123046875 0.09749999999999992 L 4.574901123046875 0.32399999999999984 L 4.5509011230468746 0.32399999999999984 L 4.5509011230468746 0.014999999999999902 L 5.441901123046875 0.014999999999999902 L 5.441901123046875 0.32399999999999984 L 5.4179011230468745 0.32399999999999984 L 5.312901123046875 0.09749999999999992 L 5.074401123046875 0.09749999999999992 L 5.074401123046875 0.9209999999999999 L 5.227401123046874 0.9809999999999999 L 5.227401123046874 1.005 L 4.766901123046875 1.005 M 5.59489013671875 1.005 L 5.59489013671875 0.9809999999999999 L 5.71639013671875 0.9209999999999999 L 5.71639013671875 0.09899999999999987 L 5.59489013671875 0.038999999999999924 L 5.59489013671875 0.014999999999999902 L 5.9923901367187495 0.014999999999999902 L 5.9923901367187495 0.038999999999999924 L 5.8738901367187495 0.09899999999999987 L 5.8738901367187495 0.45299999999999985 L 6.36139013671875 0.45299999999999985 L 6.36139013671875 0.09899999999999987 L 6.24139013671875 0.038999999999999924 L 6.24139013671875 0.014999999999999902 L 6.63889013671875 0.014999999999999902 L 6.63889013671875 0.038999999999999924 L 6.51739013671875 0.09899999999999987 L 6.51739013671875 0.9209999999999999 L 6.63889013671875 0.9809999999999999 L 6.63889013671875 1.005 L 6.24139013671875 1.005 L 6.24139013671875 0.9809999999999999 L 6.36139013671875 0.9209999999999999 L 6.36139013671875 0.5354999999999999 L 5.8738901367187495 0.5354999999999999 L 5.8738901367187495 0.9209999999999999 L 5.9923901367187495 0.9809999999999999 L 5.9923901367187495 1.005 L 5.59489013671875 1.005 M 7.141358642578124 1.0125 L 6.8623586425781244 0.09449999999999992 L 6.748358642578125 0.038999999999999924 L 6.748358642578125 0.014999999999999902 L 7.151858642578125 0.014999999999999902 L 7.151858642578125 0.038999999999999924 L 7.024358642578124 0.09449999999999992 L 7.207358642578125 0.7274999999999998 L 7.2163586425781245 0.7274999999999998 L 7.475858642578125 0.00749999999999984 L 7.538858642578124 0.00749999999999984 L 7.802858642578125 0.7274999999999998 L 7.811858642578125 0.7274999999999998 L 7.993358642578125 0.09599999999999986 L 7.865858642578125 0.038999999999999924 L 7.865858642578125 0.014999999999999902 L 8.198858642578125 0.014999999999999902 L 8.198858642578125 0.038999999999999924 L 8.098358642578125 0.09299999999999986 L 7.816358642578125 1.0125 L 7.7548586425781245 1.0125 L 7.484858642578125 0.29399999999999993 L 7.4743586425781245 0.29399999999999993 L 7.201358642578125 1.0125 L 7.141358642578124 1.0125 M 8.314351318359375 1.005 L 8.314351318359375 0.9809999999999999 L 8.437351318359374 0.9209999999999999 L 8.437351318359374 0.09899999999999987 L 8.314351318359375 0.038999999999999924 L 8.314351318359375 0.014999999999999902 L 8.714851318359374 0.014999999999999902 L 8.714851318359374 0.038999999999999924 L 8.593351318359375 0.09899999999999987 L 8.593351318359375 0.9209999999999999 L 8.714851318359374 0.9809999999999999 L 8.714851318359374 1.005 L 8.314351318359375 1.005 M 9.208380615234375 1.0199999999999998 Q 9.113880615234375 1.0199999999999998 9.047130615234375 1.002 Q 8.980380615234374 0.9839999999999999 8.909880615234375 0.9494999999999999 L 8.894880615234374 0.702 L 8.918880615234375 0.702 L 8.998380615234375 0.8654999999999999 Q 9.050880615234375 0.9089999999999999 9.101880615234375 0.9284999999999999 Q 9.152880615234375 0.9479999999999998 9.203880615234375 0.9479999999999998 Q 9.290880615234375 0.9479999999999998 9.341130615234375 0.9029999999999999 Q 9.391380615234375 0.8579999999999999 9.391380615234375 0.7799999999999999 Q 9.391380615234375 0.7184999999999999 9.363630615234374 0.6817499999999999 Q 9.335880615234375 0.6449999999999999 9.281130615234375 0.6157499999999999 Q 9.226380615234374 0.5864999999999999 9.146880615234375 0.5474999999999999 Q 9.040380615234374 0.49649999999999983 8.983380615234374 0.4402499999999999 Q 8.926380615234375 0.3839999999999999 8.926380615234375 0.2819999999999999 Q 8.926380615234375 0.22799999999999987 8.952630615234375 0.17774999999999985 Q 8.978880615234374 0.12749999999999984 9.023880615234374 0.08774999999999988 Q 9.068880615234374 0.04799999999999982 9.124380615234374 0.02399999999999991 Q 9.179880615234374 -2.220446049250313e-16 9.239880615234375 -2.220446049250313e-16 Q 9.310380615234374 -2.220446049250313e-16 9.371880615234375 0.016499999999999848 Q 9.433380615234375 0.03299999999999992 9.493380615234374 0.06449999999999989 L 9.508380615234374 0.3044999999999999 L 9.484380615234375 0.3044999999999999 L 9.406380615234374 0.1439999999999999 Q 9.358380615234374 0.10649999999999993 9.319380615234374 0.08999999999999986 Q 9.280380615234375 0.0734999999999999 9.230880615234375 0.0734999999999999 Q 9.166380615234374 0.0734999999999999 9.123630615234374 0.11699999999999988 Q 9.080880615234374 0.16049999999999986 9.080880615234374 0.22649999999999992 Q 9.080880615234374 0.29999999999999993 9.126630615234374 0.34199999999999986 Q 9.172380615234374 0.3839999999999999 9.274380615234374 0.43199999999999983 Q 9.364380615234374 0.4754999999999999 9.423630615234375 0.5152499999999999 Q 9.482880615234375 0.5549999999999999 9.511380615234375 0.6044999999999998 Q 9.539880615234374 0.6539999999999999 9.539880615234374 0.7304999999999999 Q 9.539880615234374 0.8009999999999999 9.509880615234374 0.8549999999999999 Q 9.479880615234375 0.9089999999999999 9.430380615234375 0.9457499999999999 Q 9.380880615234375 0.9824999999999999 9.323130615234374 1.00125 Q 9.265380615234374 1.0199999999999998 9.208380615234375 1.0199999999999998 M 9.709404052734374 1.005 L 9.709404052734374 0.9809999999999999 L 9.830904052734374 0.9209999999999999 L 9.830904052734374 0.09899999999999987 L 9.709404052734374 0.038999999999999924 L 9.709404052734374 0.014999999999999902 L 10.462404052734374 0.014999999999999902 L 10.462404052734374 0.2729999999999999 L 10.438404052734375 0.2729999999999999 L 10.340904052734375 0.09749999999999992 L 9.988404052734374 0.09749999999999992 L 9.988404052734374 0.45299999999999985 L 10.237404052734375 0.45299999999999985 L 10.313904052734374 0.32699999999999985 L 10.337904052734375 0.32699999999999985 L 10.337904052734375 0.6584999999999999 L 10.313904052734374 0.6584999999999999 L 10.237404052734375 0.5354999999999999 L 9.988404052734374 0.5354999999999999 L 9.988404052734374 0.9224999999999999 L 10.381404052734375 0.9224999999999999 L 10.480404052734375 0.7244999999999999 L 10.504404052734374 0.7244999999999999 L 10.504404052734374 1.005 L 9.709404052734374 1.005" fill="#0d1d22" fill-rule="nonzero"></path></g><g><path d=" M 0.19269230769230772 1.814913461538461 Q 0.1805769230769231 1.814913461538461 0.17192307692307693 1.8062596153846149 Q 0.16326923076923078 1.7976057692307688 0.16326923076923078 1.784913461538461 L 0.16326923076923078 1.650490384615384 L 0.009230769230769232 1.411067307692307 Q 0.001730769230769231 1.3989519230769225 0.003461538461538462 1.3882788461538456 Q 0.005192307692307693 1.3776057692307686 0.013557692307692309 1.3709711538461533 Q 0.021923076923076924 1.3643365384615378 0.03288461538461539 1.3643365384615378 Q 0.042692307692307696 1.3643365384615378 0.048461538461538466 1.368663461538461 Q 0.054230769230769235 1.3729903846153841 0.059423076923076926 1.381067307692307 L 0.20596153846153847 1.6135673076923072 L 0.1828846153846154 1.6135673076923072 L 0.3317307692307693 1.378759615384615 Q 0.33634615384615385 1.3718365384615379 0.34269230769230774 1.368086538461538 Q 0.3490384615384616 1.3643365384615378 0.3582692307692308 1.3643365384615378 Q 0.36865384615384617 1.3643365384615378 0.3755769230769231 1.3715480769230763 Q 0.38250000000000006 1.378759615384615 0.3836538461538462 1.3894326923076918 Q 0.38480769230769235 1.4001057692307688 0.37788461538461543 1.411067307692307 L 0.22269230769230772 1.650490384615384 L 0.22269230769230772 1.784913461538461 Q 0.22269230769230772 1.7976057692307688 0.21403846153846157 1.8062596153846149 Q 0.20538461538461542 1.814913461538461 0.19269230769230772 1.814913461538461 M 0.6242279522235578 1.8206826923076918 Q 0.573458721454327 1.8206826923076918 0.5313433368389424 1.803663461538461 Q 0.48922795222355775 1.7866442307692303 0.4589394906850962 1.7557788461538457 Q 0.42865102914663467 1.724913461538461 0.41192025991586545 1.6825096153846149 Q 0.39518949068509623 1.6401057692307686 0.39518949068509623 1.5893365384615379 Q 0.39518949068509623 1.5385673076923072 0.41192025991586545 1.4964519230769224 Q 0.42865102914663467 1.4543365384615379 0.4589394906850962 1.4234711538461533 Q 0.48922795222355775 1.3926057692307687 0.5313433368389424 1.3755865384615378 Q 0.573458721454327 1.358567307692307 0.6242279522235578 1.358567307692307 Q 0.6749971829927885 1.358567307692307 0.7168241060697116 1.3755865384615378 Q 0.7586510291466346 1.3926057692307687 0.7892279522235578 1.4234711538461533 Q 0.8198048753004809 1.4543365384615379 0.8365356445312502 1.4964519230769224 Q 0.8532664137620194 1.5385673076923072 0.8532664137620194 1.5893365384615379 Q 0.8532664137620194 1.6401057692307686 0.8365356445312502 1.6825096153846149 Q 0.8198048753004809 1.724913461538461 0.7892279522235578 1.7557788461538457 Q 0.7586510291466346 1.7866442307692303 0.7168241060697116 1.803663461538461 Q 0.6749971829927885 1.8206826923076918 0.6242279522235578 1.8206826923076918 M 0.6242279522235578 1.7664519230769224 Q 0.6617279522235577 1.7664519230769224 0.6931702599158654 1.7528942307692301 Q 0.7246125676081732 1.739336538461538 0.7476894906850963 1.7153942307692303 Q 0.7707664137620194 1.6914519230769225 0.7831702599158654 1.6591442307692303 Q 0.7955741060697117 1.626836538461538 0.7955741060697117 1.5893365384615379 Q 0.7955741060697117 1.5518365384615378 0.7831702599158654 1.5195288461538456 Q 0.7707664137620194 1.4872211538461533 0.7476894906850963 1.4632788461538455 Q 0.7246125676081732 1.439336538461538 0.6931702599158654 1.4260673076923072 Q 0.6617279522235577 1.4127980769230764 0.6242279522235578 1.4127980769230764 Q 0.5867279522235578 1.4127980769230764 0.5552856445312501 1.4260673076923072 Q 0.5238433368389424 1.439336538461538 0.5010548753004809 1.4632788461538455 Q 0.4782664137620193 1.4872211538461533 0.4655741060697116 1.5195288461538456 Q 0.45288179837740394 1.5518365384615378 0.45288179837740394 1.5893365384615379 Q 0.45288179837740394 1.626836538461538 0.4655741060697116 1.6591442307692303 Q 0.4782664137620193 1.6914519230769225 0.5010548753004809 1.7153942307692303 Q 0.5238433368389424 1.739336538461538 0.5552856445312501 1.7528942307692301 Q 0.5867279522235578 1.7664519230769224 0.6242279522235578 1.7664519230769224 M 1.1365474759615386 1.8241442307692302 Q 1.0811628605769232 1.8241442307692302 1.0384705528846154 1.803663461538461 Q 0.9957782451923078 1.7831826923076917 0.9718359375000001 1.7468365384615379 Q 0.9478936298076924 1.710490384615384 0.9478936298076924 1.6637596153846148 L 0.9478936298076924 1.3943365384615378 Q 0.9478936298076924 1.381067307692307 0.9565474759615386 1.3727019230769226 Q 0.9652013221153848 1.3643365384615378 0.9778936298076925 1.3643365384615378 Q 0.9911628605769232 1.3643365384615378 0.9995282451923078 1.3727019230769226 Q 1.0078936298076924 1.381067307692307 1.0078936298076924 1.3943365384615378 L 1.0078936298076924 1.6637596153846148 Q 1.0078936298076924 1.694913461538461 1.0243359375 1.7188557692307687 Q 1.0407782451923078 1.7427980769230764 1.0699128605769233 1.7563557692307687 Q 1.0990474759615385 1.769913461538461 1.1365474759615386 1.769913461538461 Q 1.1728936298076924 1.769913461538461 1.2008743990384616 1.7563557692307687 Q 1.2288551682692308 1.7427980769230764 1.2447205528846155 1.7188557692307687 Q 1.2605859375000001 1.694913461538461 1.2605859375000001 1.6637596153846148 L 1.2605859375000001 1.3943365384615378 Q 1.2605859375000001 1.381067307692307 1.2692397836538463 1.3727019230769226 Q 1.2778936298076924 1.3643365384615378 1.2905859375000002 1.3643365384615378 Q 1.303855168269231 1.3643365384615378 1.3119320913461539 1.3727019230769226 Q 1.3200090144230772 1.381067307692307 1.3200090144230772 1.3943365384615378 L 1.3200090144230772 1.6637596153846148 Q 1.3200090144230772 1.710490384615384 1.2966436298076924 1.7468365384615379 Q 1.2732782451923077 1.7831826923076917 1.2317397836538464 1.803663461538461 Q 1.1902013221153847 1.8241442307692302 1.1365474759615386 1.8241442307692302 M 1.4659536508413464 1.814913461538461 Q 1.4532613431490387 1.814913461538461 1.4446074969951925 1.8062596153846149 Q 1.4359536508413464 1.7976057692307688 1.4359536508413464 1.784913461538461 L 1.4359536508413464 1.3943365384615378 Q 1.4359536508413464 1.381067307692307 1.4446074969951925 1.3727019230769226 Q 1.4532613431490387 1.3643365384615378 1.4659536508413464 1.3643365384615378 L 1.5697998046875004 1.3643365384615378 Q 1.613069035456731 1.3643365384615378 1.6465305739182696 1.3825096153846148 Q 1.679992112379808 1.4006826923076918 1.6987421123798079 1.432413461538461 Q 1.717492112379808 1.4641442307692303 1.717492112379808 1.5062596153846148 Q 1.717492112379808 1.545490384615384 1.6987421123798079 1.576067307692307 Q 1.679992112379808 1.6066442307692301 1.6465305739182696 1.6239519230769226 Q 1.613069035456731 1.6412596153846148 1.5697998046875004 1.6412596153846148 L 1.4959536508413465 1.6412596153846148 L 1.4959536508413465 1.784913461538461 Q 1.4959536508413465 1.7976057692307688 1.4875882662259619 1.8062596153846149 Q 1.4792228816105772 1.814913461538461 1.4659536508413464 1.814913461538461 M 1.7053767277644234 1.814913461538461 Q 1.6972998046875003 1.814913461538461 1.690665189302885 1.8114519230769226 Q 1.6840305739182695 1.807990384615384 1.6794151893028848 1.8004903846153841 L 1.575569035456731 1.6331826923076918 L 1.6338382662259618 1.6164519230769225 L 1.7284536508413464 1.7687596153846148 Q 1.7388382662259618 1.785490384615384 1.7313382662259618 1.8002019230769226 Q 1.723838266225962 1.814913461538461 1.7053767277644234 1.814913461538461 M 1.4959536508413465 1.5858749999999995 L 1.5697998046875004 1.5858749999999995 Q 1.5963382662259618 1.5858749999999995 1.6165305739182694 1.5757788461538456 Q 1.6367228816105772 1.5656826923076919 1.6482613431490387 1.5475096153846148 Q 1.6597998046875002 1.5293365384615378 1.6597998046875002 1.5062596153846148 Q 1.6597998046875002 1.4808749999999995 1.6482613431490387 1.461259615384615 Q 1.6367228816105772 1.44164423076923 1.6165305739182694 1.4306826923076916 Q 1.5963382662259618 1.4197211538461532 1.5697998046875004 1.4197211538461532 L 1.4959536508413465 1.4197211538461532 L 1.4959536508413465 1.5858749999999995 M 1.9644433593750004 1.814913461538461 Q 1.9517510516826926 1.814913461538461 1.9430972055288465 1.8062596153846149 Q 1.9344433593750003 1.7976057692307688 1.9344433593750003 1.784913461538461 L 1.9344433593750003 1.3943365384615378 Q 1.9344433593750003 1.381067307692307 1.9430972055288465 1.3727019230769226 Q 1.9517510516826926 1.3643365384615378 1.9644433593750004 1.3643365384615378 L 2.2252125901442312 1.3643365384615378 Q 2.238481820913462 1.3643365384615378 2.246558743990385 1.3721249999999994 Q 2.254635667067308 1.379913461538461 2.254635667067308 1.3926057692307687 Q 2.254635667067308 1.4047211538461533 2.246558743990385 1.4122211538461533 Q 2.238481820913462 1.4197211538461532 2.2252125901442312 1.4197211538461532 L 1.9944433593750004 1.4197211538461532 L 1.9944433593750004 1.559913461538461 L 2.1600202824519235 1.559913461538461 Q 2.173289513221154 1.559913461538461 2.1813664362980774 1.5677019230769225 Q 2.1894433593750002 1.575490384615384 2.1894433593750002 1.5876057692307688 Q 2.1894433593750002 1.5997211538461533 2.1813664362980774 1.607509615384615 Q 2.173289513221154 1.6152980769230765 2.1600202824519235 1.6152980769230765 L 1.9944433593750004 1.6152980769230765 L 1.9944433593750004 1.784913461538461 Q 1.9944433593750004 1.7976057692307688 1.985789513221154 1.8062596153846149 Q 1.977135667067308 1.814913461538461 1.9644433593750004 1.814913461538461 M 2.520597205528847 1.8241442307692302 Q 2.4652125901442314 1.8241442307692302 2.4225202824519236 1.803663461538461 Q 2.379827974759616 1.7831826923076917 2.3558856670673083 1.7468365384615379 Q 2.3319433593750003 1.710490384615384 2.3319433593750003 1.6637596153846148 L 2.3319433593750003 1.3943365384615378 Q 2.3319433593750003 1.381067307692307 2.3405972055288466 1.3727019230769226 Q 2.349251051682693 1.3643365384615378 2.3619433593750006 1.3643365384615378 Q 2.375212590144231 1.3643365384615378 2.383577974759616 1.3727019230769226 Q 2.3919433593750004 1.381067307692307 2.3919433593750004 1.3943365384615378 L 2.3919433593750004 1.6637596153846148 Q 2.3919433593750004 1.694913461538461 2.408385667067308 1.7188557692307687 Q 2.4248279747596158 1.7427980769230764 2.4539625901442315 1.7563557692307687 Q 2.4830972055288467 1.769913461538461 2.520597205528847 1.769913461538461 Q 2.5569433593750004 1.769913461538461 2.5849241286057696 1.7563557692307687 Q 2.612904897836539 1.7427980769230764 2.6287702824519235 1.7188557692307687 Q 2.644635667067308 1.694913461538461 2.644635667067308 1.6637596153846148 L 2.644635667067308 1.3943365384615378 Q 2.644635667067308 1.381067307692307 2.6532895132211545 1.3727019230769226 Q 2.6619433593750004 1.3643365384615378 2.6746356670673084 1.3643365384615378 Q 2.687904897836539 1.3643365384615378 2.6959818209134623 1.3727019230769226 Q 2.704058743990385 1.381067307692307 2.704058743990385 1.3943365384615378 L 2.704058743990385 1.6637596153846148 Q 2.704058743990385 1.710490384615384 2.6806933593750006 1.7468365384615379 Q 2.6573279747596157 1.7831826923076917 2.6157895132211544 1.803663461538461 Q 2.574251051682693 1.8241442307692302 2.520597205528847 1.8241442307692302 M 2.8494264573317314 1.814913461538461 Q 2.8367341496394234 1.814913461538461 2.828368765024039 1.8062596153846149 Q 2.820003380408654 1.7976057692307688 2.820003380408654 1.784913461538461 L 2.820003380408654 1.3943365384615378 Q 2.820003380408654 1.381067307692307 2.828368765024039 1.3727019230769226 Q 2.8367341496394234 1.3643365384615378 2.8494264573317314 1.3643365384615378 Q 2.863272611177885 1.3643365384615378 2.8725033804086544 1.3752980769230763 L 3.124041841947116 1.709913461538461 L 3.124041841947116 1.3943365384615378 Q 3.124041841947116 1.381067307692307 3.132695688100962 1.3727019230769226 Q 3.1413495342548083 1.3643365384615378 3.154041841947116 1.3643365384615378 Q 3.1673110727163465 1.3643365384615378 3.17538799579327 1.3727019230769226 Q 3.183464918870193 1.381067307692307 3.183464918870193 1.3943365384615378 L 3.183464918870193 1.784913461538461 Q 3.183464918870193 1.7976057692307688 3.17538799579327 1.8062596153846149 Q 3.1673110727163465 1.814913461538461 3.154041841947116 1.814913461538461 Q 3.148272611177885 1.814913461538461 3.14163799579327 1.8123173076923071 Q 3.1350033804086546 1.8097211538461533 3.130964918870193 1.8045288461538456 L 2.879426457331731 1.469913461538461 L 2.879426457331731 1.784913461538461 Q 2.879426457331731 1.7976057692307688 2.871061072716347 1.8062596153846149 Q 2.862695688100962 1.814913461538461 2.8494264573317314 1.814913461538461 M 3.3294363168569716 1.814913461538461 Q 3.316744009164664 1.814913461538461 3.3080901630108177 1.8062596153846149 Q 3.2994363168569714 1.7976057692307688 3.2994363168569714 1.784913461538461 L 3.2994363168569714 1.3943365384615378 Q 3.2994363168569714 1.381067307692307 3.3080901630108177 1.3727019230769226 Q 3.316744009164664 1.3643365384615378 3.3294363168569716 1.3643365384615378 L 3.4338593937800486 1.3643365384615378 Q 3.483474778395433 1.3643365384615378 3.52414785531851 1.3807788461538455 Q 3.564820932241587 1.3972211538461532 3.594820932241587 1.4275096153846147 Q 3.6248209322415867 1.4577980769230763 3.6409747783954334 1.4987596153846148 Q 3.657128624549279 1.5397211538461533 3.657128624549279 1.5893365384615379 Q 3.657128624549279 1.6389519230769225 3.6409747783954334 1.6802019230769225 Q 3.6248209322415867 1.7214519230769225 3.594820932241587 1.751740384615384 Q 3.564820932241587 1.7820288461538456 3.52414785531851 1.7984711538461533 Q 3.483474778395433 1.814913461538461 3.4338593937800486 1.814913461538461 L 3.3294363168569716 1.814913461538461 M 3.3594363168569714 1.761836538461538 L 3.4338593937800486 1.761836538461538 Q 3.482320932241587 1.761836538461538 3.5195324707031252 1.7396249999999995 Q 3.556744009164664 1.717413461538461 3.5780901630108177 1.6784711538461532 Q 3.5994363168569716 1.6395288461538455 3.5994363168569716 1.5893365384615379 Q 3.5994363168569716 1.5385673076923072 3.5780901630108177 1.499913461538461 Q 3.556744009164664 1.461259615384615 3.5195324707031252 1.439336538461538 Q 3.482320932241587 1.417413461538461 3.4338593937800486 1.417413461538461 L 3.3594363168569714 1.417413461538461 L 3.3594363168569714 1.761836538461538 M 3.7817555588942313 1.814913461538461 Q 3.7690632512019238 1.814913461538461 3.7604094050480774 1.8062596153846149 Q 3.751755558894231 1.7976057692307688 3.751755558894231 1.784913461538461 L 3.751755558894231 1.3943365384615378 Q 3.751755558894231 1.381067307692307 3.7604094050480774 1.3727019230769226 Q 3.7690632512019238 1.3643365384615378 3.7817555588942313 1.3643365384615378 Q 3.795024789663462 1.3643365384615378 3.8033901742788467 1.3727019230769226 Q 3.811755558894231 1.381067307692307 3.811755558894231 1.3943365384615378 L 3.811755558894231 1.784913461538461 Q 3.811755558894231 1.7976057692307688 3.8033901742788467 1.8062596153846149 Q 3.795024789663462 1.814913461538461 3.7817555588942313 1.814913461538461 M 3.9571494704026446 1.814913461538461 Q 3.9444571627103366 1.814913461538461 3.9360917780949523 1.8062596153846149 Q 3.9277263934795674 1.7976057692307688 3.9277263934795674 1.784913461538461 L 3.9277263934795674 1.3943365384615378 Q 3.9277263934795674 1.381067307692307 3.9360917780949523 1.3727019230769226 Q 3.9444571627103366 1.3643365384615378 3.9571494704026446 1.3643365384615378 Q 3.9709956242487983 1.3643365384615378 3.9802263934795676 1.3752980769230763 L 4.231764855018029 1.709913461538461 L 4.231764855018029 1.3943365384615378 Q 4.231764855018029 1.381067307692307 4.240418701171875 1.3727019230769226 Q 4.249072547325722 1.3643365384615378 4.261764855018029 1.3643365384615378 Q 4.27503408578726 1.3643365384615378 4.283111008864183 1.3727019230769226 Q 4.291187931941106 1.381067307692307 4.291187931941106 1.3943365384615378 L 4.291187931941106 1.784913461538461 Q 4.291187931941106 1.7976057692307688 4.283111008864183 1.8062596153846149 Q 4.27503408578726 1.814913461538461 4.261764855018029 1.814913461538461 Q 4.255995624248799 1.814913461538461 4.249361008864183 1.8123173076923071 Q 4.242726393479567 1.8097211538461533 4.238687931941106 1.8045288461538456 L 3.9871494704026444 1.469913461538461 L 3.9871494704026444 1.784913461538461 Q 3.9871494704026444 1.7976057692307688 3.97878408578726 1.8062596153846149 Q 3.9704187011718752 1.814913461538461 3.9571494704026446 1.814913461538461 M 4.609082406850963 1.8206826923076918 Q 4.562351637620193 1.8206826923076918 4.521678560697116 1.803086538461538 Q 4.481005483774039 1.785490384615384 4.450717022235578 1.7540480769230764 Q 4.420428560697116 1.7226057692307686 4.403409329927885 1.680490384615384 Q 4.386390099158654 1.6383749999999995 4.386390099158654 1.5893365384615379 Q 4.386390099158654 1.5408749999999993 4.403409329927885 1.4990480769230763 Q 4.420428560697116 1.4572211538461532 4.450717022235578 1.4257788461538456 Q 4.481005483774039 1.3943365384615378 4.521390099158655 1.3764519230769225 Q 4.56177471454327 1.358567307692307 4.609082406850963 1.358567307692307 Q 4.6535054837740395 1.358567307692307 4.68552471454327 1.3701057692307685 Q 4.7175439453125 1.3816442307692303 4.749851637620193 1.4081826923076917 Q 4.754467022235578 1.4116442307692303 4.757063176081731 1.4153942307692302 Q 4.759659329927885 1.4191442307692301 4.76052471454327 1.4228942307692303 Q 4.761390099158654 1.4266442307692302 4.761390099158654 1.431836538461538 Q 4.761390099158654 1.4427980769230764 4.753601637620193 1.4502980769230764 Q 4.7458131760817315 1.4577980769230763 4.734563176081731 1.4583749999999993 Q 4.7233131760817315 1.4589519230769226 4.713505483774039 1.4508749999999995 Q 4.692159329927885 1.432413461538461 4.669370868389424 1.4226057692307688 Q 4.646582406850962 1.4127980769230764 4.609082406850963 1.4127980769230764 Q 4.5750439453125 1.4127980769230764 4.545043945312501 1.4266442307692302 Q 4.515043945312501 1.440490384615384 4.492255483774039 1.4647211538461533 Q 4.469467022235578 1.4889519230769226 4.45677471454327 1.5209711538461532 Q 4.444082406850963 1.552990384615384 4.444082406850963 1.5893365384615379 Q 4.444082406850963 1.626259615384615 4.45677471454327 1.6582788461538456 Q 4.469467022235578 1.6902980769230764 4.492255483774039 1.7145288461538457 Q 4.515043945312501 1.7387596153846148 4.545043945312501 1.752317307692307 Q 4.5750439453125 1.7658749999999994 4.609082406850963 1.7658749999999994 Q 4.638505483774039 1.7658749999999994 4.664755483774039 1.7557788461538457 Q 4.691005483774039 1.7456826923076918 4.715236253004808 1.7277980769230763 Q 4.725620868389424 1.7202980769230765 4.735717022235578 1.721163461538461 Q 4.7458131760817315 1.7220288461538455 4.752736253004809 1.729240384615384 Q 4.759659329927885 1.7364519230769226 4.759659329927885 1.7491442307692302 Q 4.759659329927885 1.754913461538461 4.757640099158655 1.7603942307692302 Q 4.755620868389424 1.7658749999999994 4.750428560697116 1.770490384615384 Q 4.719851637620193 1.7958749999999994 4.684082406850962 1.8082788461538457 Q 4.648313176081731 1.8206826923076918 4.609082406850963 1.8206826923076918 M 4.759659329927885 1.7491442307692302 L 4.701967022235578 1.7376057692307687 L 4.701967022235578 1.6343365384615378 L 4.622351637620193 1.6343365384615378 Q 4.609659329927886 1.6343365384615378 4.601005483774039 1.626836538461538 Q 4.592351637620193 1.619336538461538 4.592351637620193 1.6077980769230764 Q 4.592351637620193 1.596259615384615 4.601005483774039 1.5887596153846149 Q 4.609659329927886 1.5812596153846148 4.622351637620193 1.5812596153846148 L 4.730236253004809 1.5812596153846148 Q 4.743505483774039 1.5812596153846148 4.751582406850963 1.5896249999999994 Q 4.759659329927885 1.597990384615384 4.759659329927885 1.6112596153846148 L 4.759659329927885 1.7491442307692302 M 5.0556250939002405 1.814913461538461 Q 5.042932786207933 1.814913461538461 5.034278940054087 1.8062596153846149 Q 5.02562509390024 1.7976057692307688 5.02562509390024 1.784913461538461 L 5.02562509390024 1.3943365384615378 Q 5.02562509390024 1.381067307692307 5.034278940054087 1.3727019230769226 Q 5.042932786207933 1.3643365384615378 5.0556250939002405 1.3643365384615378 L 5.1710097092848555 1.3643365384615378 Q 5.214278940054086 1.3643365384615378 5.247740478515625 1.3833749999999994 Q 5.281202016977163 1.402413461538461 5.299952016977164 1.4361634615384609 Q 5.318702016977164 1.469913461538461 5.318702016977164 1.513759615384615 Q 5.318702016977164 1.5558749999999995 5.299952016977164 1.5887596153846149 Q 5.281202016977163 1.6216442307692303 5.247740478515625 1.6401057692307686 Q 5.214278940054086 1.658567307692307 5.1710097092848555 1.658567307692307 L 5.085625093900241 1.658567307692307 L 5.085625093900241 1.784913461538461 Q 5.085625093900241 1.7976057692307688 5.0772597092848555 1.8062596153846149 Q 5.068894324669471 1.814913461538461 5.0556250939002405 1.814913461538461 M 5.085625093900241 1.6031826923076917 L 5.1710097092848555 1.6031826923076917 Q 5.1975481708233175 1.6031826923076917 5.217740478515625 1.5916442307692302 Q 5.237932786207933 1.5801057692307687 5.249471247746395 1.559913461538461 Q 5.261009709284856 1.5397211538461533 5.261009709284856 1.513759615384615 Q 5.261009709284856 1.486067307692307 5.249471247746395 1.4650096153846148 Q 5.237932786207933 1.4439519230769224 5.217740478515625 1.431836538461538 Q 5.1975481708233175 1.4197211538461532 5.1710097092848555 1.4197211538461532 L 5.085625093900241 1.4197211538461532 L 5.085625093900241 1.6031826923076917 M 5.35040771484375 1.814913461538461 Q 5.3342538686899035 1.814913461538461 5.325600022536057 1.8010673076923072 Q 5.316946176382212 1.7872211538461533 5.323869253305288 1.7716442307692302 L 5.485984637920673 1.3845288461538456 Q 5.494638484074519 1.3643365384615378 5.514253868689904 1.3643365384615378 Q 5.535023099459134 1.3643365384615378 5.542523099459134 1.3845288461538456 L 5.705215407151442 1.7727980769230764 Q 5.711561560997596 1.7889519230769226 5.703196176382211 1.8019326923076917 Q 5.694830791766827 1.814913461538461 5.678100022536057 1.814913461538461 Q 5.669446176382212 1.814913461538461 5.6616577148437495 1.8100096153846148 Q 5.653869253305288 1.8051057692307686 5.65040771484375 1.7964519230769225 L 5.507330791766827 1.441067307692307 L 5.523484637920673 1.441067307692307 L 5.378100022536057 1.7964519230769225 Q 5.374061560997596 1.8056826923076919 5.366273099459135 1.8102980769230763 Q 5.3584846379206725 1.814913461538461 5.35040771484375 1.814913461538461 M 5.3809846379206725 1.7156826923076918 L 5.4040615609975955 1.6660673076923072 L 5.630215407151442 1.6660673076923072 L 5.653292330228365 1.7156826923076918 L 5.3809846379206725 1.7156826923076918 M 5.804447866586538 1.814913461538461 Q 5.791755558894231 1.814913461538461 5.783101712740384 1.8062596153846149 Q 5.774447866586538 1.7976057692307688 5.774447866586538 1.784913461538461 L 5.774447866586538 1.3943365384615378 Q 5.774447866586538 1.381067307692307 5.783101712740384 1.3727019230769226 Q 5.791755558894231 1.3643365384615378 5.804447866586538 1.3643365384615378 L 5.908294020432692 1.3643365384615378 Q 5.9515632512019225 1.3643365384615378 5.985024789663461 1.3825096153846148 Q 6.018486328124999 1.4006826923076918 6.037236328125 1.432413461538461 Q 6.055986328125 1.4641442307692303 6.055986328125 1.5062596153846148 Q 6.055986328125 1.545490384615384 6.037236328125 1.576067307692307 Q 6.018486328124999 1.6066442307692301 5.985024789663461 1.6239519230769226 Q 5.9515632512019225 1.6412596153846148 5.908294020432692 1.6412596153846148 L 5.8344478665865385 1.6412596153846148 L 5.8344478665865385 1.784913461538461 Q 5.8344478665865385 1.7976057692307688 5.826082481971153 1.8062596153846149 Q 5.817717097355769 1.814913461538461 5.804447866586538 1.814913461538461 M 6.043870943509615 1.814913461538461 Q 6.035794020432692 1.814913461538461 6.029159405048077 1.8114519230769226 Q 6.0225247896634615 1.807990384615384 6.017909405048076 1.8004903846153841 L 5.914063251201923 1.6331826923076918 L 5.972332481971153 1.6164519230769225 L 6.066947866586538 1.7687596153846148 Q 6.077332481971154 1.785490384615384 6.0698324819711535 1.8002019230769226 Q 6.062332481971153 1.814913461538461 6.043870943509615 1.814913461538461 M 5.8344478665865385 1.5858749999999995 L 5.908294020432692 1.5858749999999995 Q 5.934832481971154 1.5858749999999995 5.955024789663462 1.5757788461538456 Q 5.975217097355769 1.5656826923076919 5.986755558894231 1.5475096153846148 Q 5.998294020432692 1.5293365384615378 5.998294020432692 1.5062596153846148 Q 5.998294020432692 1.4808749999999995 5.986755558894231 1.461259615384615 Q 5.975217097355769 1.44164423076923 5.955024789663462 1.4306826923076916 Q 5.934832481971154 1.4197211538461532 5.908294020432692 1.4197211538461532 L 5.8344478665865385 1.4197211538461532 L 5.8344478665865385 1.5858749999999995 M 6.272920391376202 1.814913461538461 Q 6.260228083683894 1.814913461538461 6.251574237530048 1.8062596153846149 Q 6.242920391376202 1.7976057692307688 6.242920391376202 1.784913461538461 L 6.242920391376202 1.3643365384615378 L 6.302920391376202 1.3643365384615378 L 6.302920391376202 1.784913461538461 Q 6.302920391376202 1.7976057692307688 6.294266545222356 1.8062596153846149 Q 6.28561269906851 1.814913461538461 6.272920391376202 1.814913461538461 M 6.118305006760817 1.4197211538461532 Q 6.106189622145433 1.4197211538461532 6.098401160606971 1.4119326923076918 Q 6.09061269906851 1.4041442307692302 6.09061269906851 1.3920288461538455 Q 6.09061269906851 1.379913461538461 6.098401160606971 1.3721249999999994 Q 6.106189622145433 1.3643365384615378 6.118305006760817 1.3643365384615378 L 6.426958852914663 1.3643365384615378 Q 6.439074237530048 1.3643365384615378 6.44686269906851 1.3721249999999994 Q 6.454651160606971 1.379913461538461 6.454651160606971 1.3920288461538455 Q 6.454651160606971 1.4041442307692302 6.44686269906851 1.4119326923076918 Q 6.439074237530048 1.4197211538461532 6.426958852914663 1.4197211538461532 L 6.118305006760817 1.4197211538461532 M 6.55100351186899 1.814913461538461 Q 6.538311204176683 1.814913461538461 6.5299458195612985 1.8062596153846149 Q 6.521580434945913 1.7976057692307688 6.521580434945913 1.784913461538461 L 6.521580434945913 1.3943365384615378 Q 6.521580434945913 1.381067307692307 6.5299458195612985 1.3727019230769226 Q 6.538311204176683 1.3643365384615378 6.55100351186899 1.3643365384615378 Q 6.564849665715144 1.3643365384615378 6.574080434945913 1.3752980769230763 L 6.825618896484375 1.709913461538461 L 6.825618896484375 1.3943365384615378 Q 6.825618896484375 1.381067307692307 6.8342727426382215 1.3727019230769226 Q 6.842926588792067 1.3643365384615378 6.855618896484375 1.3643365384615378 Q 6.868888127253606 1.3643365384615378 6.876965050330529 1.3727019230769226 Q 6.885041973407452 1.381067307692307 6.885041973407452 1.3943365384615378 L 6.885041973407452 1.784913461538461 Q 6.885041973407452 1.7976057692307688 6.876965050330529 1.8062596153846149 Q 6.868888127253606 1.814913461538461 6.855618896484375 1.814913461538461 Q 6.849849665715144 1.814913461538461 6.843215050330529 1.8123173076923071 Q 6.836580434945914 1.8097211538461533 6.8325419734074515 1.8045288461538456 L 6.581003511868991 1.469913461538461 L 6.581003511868991 1.784913461538461 Q 6.581003511868991 1.7976057692307688 6.572638127253605 1.8062596153846149 Q 6.564272742638221 1.814913461538461 6.55100351186899 1.814913461538461 M 7.031013371394231 1.814913461538461 Q 7.018321063701923 1.814913461538461 7.009667217548077 1.8062596153846149 Q 7.00101337139423 1.7976057692307688 7.00101337139423 1.784913461538461 L 7.00101337139423 1.3943365384615378 Q 7.00101337139423 1.381067307692307 7.009667217548077 1.3727019230769226 Q 7.018321063701923 1.3643365384615378 7.031013371394231 1.3643365384615378 L 7.291782602163462 1.3643365384615378 Q 7.305051832932692 1.3643365384615378 7.313128756009616 1.3721249999999994 Q 7.321205679086538 1.379913461538461 7.321205679086538 1.3926057692307687 Q 7.321205679086538 1.4047211538461533 7.313128756009616 1.4122211538461533 Q 7.305051832932692 1.4197211538461532 7.291782602163462 1.4197211538461532 L 7.061013371394231 1.4197211538461532 L 7.061013371394231 1.559913461538461 L 7.226590294471154 1.559913461538461 Q 7.239859525240385 1.559913461538461 7.247936448317308 1.5677019230769225 Q 7.25601337139423 1.575490384615384 7.25601337139423 1.5876057692307688 Q 7.25601337139423 1.5997211538461533 7.247936448317308 1.607509615384615 Q 7.239859525240385 1.6152980769230765 7.226590294471154 1.6152980769230765 L 7.061013371394231 1.6152980769230765 L 7.061013371394231 1.7595288461538456 L 7.291782602163462 1.7595288461538456 Q 7.305051832932692 1.7595288461538456 7.313128756009616 1.7670288461538457 Q 7.321205679086538 1.7745288461538455 7.321205679086538 1.7866442307692303 Q 7.321205679086538 1.7993365384615378 7.313128756009616 1.8071249999999994 Q 7.305051832932692 1.814913461538461 7.291782602163462 1.814913461538461 L 7.031013371394231 1.814913461538461 M 7.435443490835336 1.814913461538461 Q 7.422751183143029 1.814913461538461 7.414097336989182 1.8062596153846149 Q 7.405443490835336 1.7976057692307688 7.405443490835336 1.784913461538461 L 7.405443490835336 1.3943365384615378 Q 7.405443490835336 1.381067307692307 7.414097336989182 1.3727019230769226 Q 7.422751183143029 1.3643365384615378 7.435443490835336 1.3643365384615378 L 7.53928964468149 1.3643365384615378 Q 7.5825588754507205 1.3643365384615378 7.616020413912259 1.3825096153846148 Q 7.649481952373797 1.4006826923076918 7.668231952373798 1.432413461538461 Q 7.686981952373798 1.4641442307692303 7.686981952373798 1.5062596153846148 Q 7.686981952373798 1.545490384615384 7.668231952373798 1.576067307692307 Q 7.649481952373797 1.6066442307692301 7.616020413912259 1.6239519230769226 Q 7.5825588754507205 1.6412596153846148 7.53928964468149 1.6412596153846148 L 7.465443490835336 1.6412596153846148 L 7.465443490835336 1.784913461538461 Q 7.465443490835336 1.7976057692307688 7.457078106219951 1.8062596153846149 Q 7.448712721604567 1.814913461538461 7.435443490835336 1.814913461538461 M 7.674866567758413 1.814913461538461 Q 7.66678964468149 1.814913461538461 7.660155029296875 1.8114519230769226 Q 7.6535204139122595 1.807990384615384 7.648905029296874 1.8004903846153841 L 7.545058875450721 1.6331826923076918 L 7.603328106219951 1.6164519230769225 L 7.697943490835336 1.7687596153846148 Q 7.708328106219952 1.785490384615384 7.7008281062199515 1.8002019230769226 Q 7.693328106219951 1.814913461538461 7.674866567758413 1.814913461538461 M 7.465443490835336 1.5858749999999995 L 7.53928964468149 1.5858749999999995 Q 7.565828106219952 1.5858749999999995 7.58602041391226 1.5757788461538456 Q 7.6062127216045665 1.5656826923076919 7.617751183143028 1.5475096153846148 Q 7.62928964468149 1.5293365384615378 7.62928964468149 1.5062596153846148 Q 7.62928964468149 1.4808749999999995 7.617751183143028 1.461259615384615 Q 7.6062127216045665 1.44164423076923 7.58602041391226 1.4306826923076916 Q 7.565828106219952 1.4197211538461532 7.53928964468149 1.4197211538461532 L 7.465443490835336 1.4197211538461532 L 7.465443490835336 1.5858749999999995" fill="#24162b" fill-rule="nonzero"></path></g></g><defs><clipPath id="SvgjsClipPath1002"><path d=" M -5.768662717121589 -0.9960405663554257 h 5.368662717121588 v 3.8069945942493124 h -5.368662717121588 Z"></path></clipPath><clipPath id="SvgjsClipPath100013b6da7b-0875-46a8-832e-0a75e43a2d70"><path d=" M -5.768662717121589 -0.9960405663554257 L -0.40000000000000036 -0.9960405663554257 L -0.40000000000000036 2.810954027893887 L -5.768662717121589 2.810954027893887 Z"></path></clipPath></defs></svg>